<svg width="2037" height="512" viewBox="0 0 2037 512" fill="none" xmlns="http://www.w3.org/2000/svg">
<rect width="2037" height="512" fill="#2C1FEB"/>
<g transform="translate(408 168)">
<path d="M1133.22 160.687H1111.82C1098.13 160.687 1090.85 151.7 1090.85 140.573V72.9557H1074.16V53.6975H1091.92V23.7404H1112.89V53.6975H1134.93V72.9557H1112.89V140.359H1133.22V160.687Z" fill="#FFFFFF"/>
<path d="M1041.53 130.73C1041.53 106.551 979.9 124.953 979.9 83.2269C979.9 64.8246 997.233 51.5579 1019.27 51.5579C1041.74 51.5579 1058 65.4665 1061.64 83.8688H1039.6C1037.46 75.9516 1029.97 69.9601 1019.27 69.9601C1007.93 69.9601 1001.94 75.7376 1001.94 82.7989C1001.94 103.555 1063.35 87.7204 1063.35 129.66C1063.35 150.631 1044.31 162.827 1022.27 162.827C1000.01 162.827 979.473 150.203 976.049 128.163H998.517C1000.87 137.578 1010.29 143.997 1022.27 143.997C1032.75 143.997 1041.53 139.29 1041.53 130.73Z" fill="#FFFFFF"/>
<path d="M867.654 53.6975H890.122V119.175C890.122 134.796 899.537 142.071 912.59 142.071C925.429 142.071 934.844 134.796 934.844 119.175V53.6975H957.312V119.603C957.312 149.988 935.7 162.827 912.59 162.827C889.266 162.827 867.654 149.988 867.654 119.389V53.6975Z" fill="#FFFFFF"/>
<path d="M796.606 160.687V72.9557C796.606 61.8287 803.026 53.6975 814.795 53.6975H850.529V74.4535H819.074V160.687H796.606Z" fill="#FFFFFF"/>
<path d="M774.52 160.687H753.122C739.427 160.687 732.152 151.7 732.152 140.573V72.9557H715.461V53.6975H733.222V23.7404H754.192V53.6975H776.232V72.9557H754.192V140.359H774.52V160.687Z" fill="#FFFFFF"/>
<path d="M611.756 160.688V53.6977H633.582V65.6805C638.932 58.6192 646.849 51.5579 662.256 51.5579C684.082 51.5579 700.344 67.8203 700.344 90.0742V160.688H678.518V93.9259C678.518 80.6591 670.387 70.816 656.906 70.816C642.783 70.816 633.796 80.6591 633.796 93.9259V160.688H611.756Z" fill="#FFFFFF"/>
<path d="M562.675 37.2212V15.1813H587.068V37.2212H562.675ZM563.531 160.688V53.6976H585.999V160.688H563.531Z" fill="#FFFFFF"/>
<path d="M512.938 147.849V144.211C509.514 154.268 499.457 162.827 483.195 162.827C463.295 162.827 446.39 150.844 446.39 130.088C446.39 110.188 458.801 98.2055 485.762 95.4237L510.798 92.856V85.1527C510.798 77.0215 504.807 69.9601 491.54 69.9601C480.199 69.9601 473.994 76.1655 472.924 83.2269H450.242C452.596 63.5407 471.212 51.5579 491.54 51.5579C514.008 51.5579 532.624 64.3967 532.624 87.9344V141.429H545.463V160.688H526.205C518.501 160.688 512.938 155.338 512.938 147.849ZM468.43 129.019C468.43 138.434 476.347 144.211 487.046 144.211C500.955 144.211 510.798 133.298 510.798 118.32V110.616L486.618 112.97C474.849 114.254 468.43 118.961 468.43 129.019Z" fill="#FFFFFF"/>
<path d="M383.266 160.687V72.9557C383.266 61.8287 389.686 53.6975 401.454 53.6975H437.189V74.4535H405.734V160.687H383.266Z" fill="#FFFFFF"/>
<path d="M251 160.688V15.1813H310.272C339.374 15.1813 355.636 32.9416 355.636 54.9815C355.636 66.9644 351.784 78.5193 339.588 84.7247C351.998 90.2882 362.483 102.699 362.483 118.32C362.483 144.211 344.295 160.688 316.05 160.688H251ZM274.11 75.9515H310.272C323.325 75.9515 332.098 71.03 332.098 55.6234C332.098 40.2169 322.683 35.7233 310.272 35.7233H274.11V75.9515ZM274.324 140.145H314.98C329.531 140.145 338.946 133.084 338.946 118.534C338.946 102.913 328.889 96.0656 314.98 96.0656H274.324V140.145Z" fill="#FFFFFF"/>
<path d="M63 0C72.94 0 81 8.06 81 18V36C81 45.94 72.94 54 63 54H54V61H63C72.94 61 81 69.06 81 79V97C81 106.94 72.94 115 63 115H54V122H63C72.94 122 81 130.06 81 140V158C81 167.94 72.94 176 63 176H45C35.06 176 27 167.94 27 158V145.5H18C8.06 145.5 0 137.44 0 127.5V109.5C0 99.56 8.06 91.5 18 91.5H27V84.5H18C8.06 84.5 0 76.44 0 66.5V48.5C0 38.56 8.06 30.5 18 30.5H27V18C27 8.06 35.06 0 45 0H63ZM125 0C134.94 0 143 8.06 143 18V30.5H152C161.94 30.5 170 38.56 170 48.5V66.5C170 76.44 161.94 84.5 152 84.5H143V91.5H152C161.94 91.5 170 99.56 170 109.5V127.5C170 137.44 161.94 145.5 152 145.5H143V158C143 167.94 134.94 176 125 176H107C97.06 176 89 167.94 89 158V140C89 130.06 97.06 122 107 122H116V115H107C97.06 115 89 106.94 89 97V79C89 69.06 97.06 61 107 61H116V54H107C97.06 54 89 45.94 89 36V18C89 8.06 97.06 0 107 0H125Z" fill="#FFFFFF"/>
</g>
</svg>
